# xmcd
#
# Track frame offsets:
#	150
#	41060
#	95407
#	147875
#	201985
#	236825
#	254222
#
# Disc length: 3436 seconds
#
# Revision: 0
# Processed by: cddbd v1.5.2PL0 Copyright (c) Steve Scherf et al.
# Submitted via: EasyCDDAExtractor 16.0.6.1
#
DISCID=6b0d6a07
DTITLE=Άνευ ερμηνευτού - Μοιρολόγια και γυρίσματα-Πέτρο Λούκας Χαλκιάς
DYEAR=1993
DGENRE=Παραδοσιακή
TTITLE0=Μοιρολόϊ με γυρίσματα
TTITLE1=Μονή γκάϊντα
TTITLE2=Μπεράτι
TTITLE3=Παλιό ζαγορίσιο
TTITLE4=Φράσια
TTITLE5=Σκάρος
TTITLE6=Στον μπαρμπα Τάσο Χαλκιά
EXTD=
EXTT0=
EXTT1=
EXTT2=
EXTT3=
EXTT4=
EXTT5=
EXTT6=
PLAYORDER=
